Coordinates
version=1
nRows=6
nColumns=36
inDegrees=yes

Units are S.I. units (second, meters, Newtons, ...)
If the header above contains a line with 'inDegrees', this indicates whether rotational values are in degrees (yes) or radians (no).

endheader
time	pelvis_tilt	pelvis_list	pelvis_rotation	pelvis_tx	pelvis_ty	pelvis_tz	hip_flexion_r	hip_adduction_r	hip_rotation_r	knee_angle_r	knee_angle_r_beta	ankle_angle_r	subtalar_angle_r	mtp_angle_r	hip_flexion_l	hip_adduction_l	hip_rotation_l	knee_angle_l	knee_angle_l_beta	ankle_angle_l	subtalar_angle_l	mtp_angle_l	lumbar_extension	lumbar_bending	lumbar_rotation	arm_flex_r	arm_add_r	arm_rot_r	elbow_flex_r	pro_sup_r	arm_flex_l	arm_add_l	arm_rot_l	elbow_flex_l	pro_sup_l
      4.90000000	     -1.37418691	      1.62009021	      2.13856872	     -0.28672243	      1.28210895	     -0.08241209	     -4.80731764	     -4.17036093	      6.70082831	      3.66349518	      0.06394005	      8.97796288	    -22.69839463	     -7.49999987	     -3.52254051	     -2.08218292	     15.14966892	      3.17364489	      0.05539055	     11.89819526	     -8.29400385	     -7.49999987	     -5.19930139	     -0.40840711	     -6.02397604	      5.34230903	     -3.99448112	     13.90465766	     22.65709646	     82.40889904	      5.41849681	     -4.75620080	      5.70997913	     25.18738575	     84.10992870
      4.91666670	     -1.35187646	      1.59822043	      2.20011385	     -0.27989723	      1.28209414	     -0.07914231	     -4.89308729	     -4.07339447	      6.71325201	      3.65782349	      0.06384106	      8.93597949	    -22.66918027	     -7.49999987	     -3.61919462	     -2.16173029	     15.17576331	      3.18512416	      0.05559090	     11.87503874	     -8.26432787	     -7.49999987	     -5.15345191	     -0.44418871	     -5.99870159	      5.21610435	     -3.87189861	     13.92228258	     22.65415740	     82.41110759	      5.29078922	     -4.79774382	      5.70547039	     25.15454921	     84.10939926
      4.93333330	     -1.37002361	      1.59655338	      2.18322388	     -0.28692375	      1.28191899	     -0.08242257	     -4.88152342	     -4.07682197	      6.71365384	      3.64793600	      0.06366849	      8.93960767	    -22.67024149	     -7.49999987	     -3.61587548	     -2.15469055	     15.17342832	      3.17383155	      0.05539381	     11.87812148	     -8.26510569	     -7.49999987	     -5.14510524	     -0.44626980	     -5.99540339	      5.21448484	     -3.86579762	     13.92306498	     22.65647789	     82.41114644	      5.28630617	     -4.80302719	      5.70481989	     25.15463458	     84.10928585
      4.95000000	     -1.39940920	      1.55616529	      2.16883334	     -0.28627781	      1.28175776	     -0.08230695	     -4.91776525	     -4.02691608	      6.86494651	      3.42598424	      0.05979471	      8.99995185	    -22.62492868	     -7.49999987	     -3.67206988	     -2.21799772	     15.10925650	      3.01530862	      0.05262706	     11.90902713	     -8.17398502	     -7.49999987	     -5.11760341	     -0.29948302	     -5.96439987	      5.19947076	     -3.90913593	     13.85534337	     23.15728141	     81.19962771	      5.18702696	     -4.77090253	      5.67244785	     25.48550930	     82.85055912
      4.96666670	     -1.47361328	      1.54896366	      2.16326328	     -0.28657588	      1.28185230	     -0.08241187	     -4.79601332	     -4.02294044	      6.89570782	      3.40357019	      0.05940351	      9.08237351	    -22.50770303	     -7.49999987	     -3.58853549	     -2.22011762	     15.08298549	      3.01034586	      0.05254045	     11.88616609	     -8.17331864	     -7.49999987	     -5.12143375	     -0.23664692	     -5.89732220	      5.20349008	     -3.94515891	     13.93080670	     23.36337007	     80.29902560	      5.20967234	     -4.76363810	      5.76578930	     25.62847534	     81.91462540
      4.98333330	     -1.45002129	      1.55438192	      2.21076675	     -0.27964018	      1.28182056	     -0.07916170	     -4.85404045	     -3.97939317	      6.95889443	      3.38798872	      0.05913156	      9.10305754	    -22.49547768	     -7.49999987	     -3.63578127	     -2.25371733	     15.10914591	      3.07065413	      0.05359302	     11.86723828	     -8.16213967	     -7.49999987	     -5.12698177	     -0.25305367	     -5.84181025	      5.10702777	     -3.86653865	     13.95505929	     23.34591213	     80.31137708	      5.08507697	     -4.78280944	      5.77381354	     25.59340652	     81.92475761
